. 
  
http://www.torrentday.com/        :     The Hottest Private Tracker On The Net!!!


               www . TorrentDay . Com 
(((((((((((((= Enjoy No RAR releases =))))))))))))))))))))


...................................NFO:....................................

.*******************************************************************************
               The.Accidental.Witness.2006.DVDRip.AC3.X264-BARC0DE
*******************************************************************************

-------------------------------------------------------------------------------
                              General Information
-------------------------------------------------------------------------------
Type.................: Movie
Name.................: The Accidental Witness
Movie Information....: http://www.imdb.com/title/tt0494243/
Genre................: Thriller
-------------------------------------------------------------------------------
                                    PLOT
-------------------------------------------------------------------------------
Wagner stars as Christine, a paralegal with aspirations of becoming a lawyer. 
Graham stars as Victor, a shady partner in an investment firm. When their paths 
cross, their lives change dramatically and in an ugly way. Aaron Pearl is adorable 
in the role of Christine's fianc, and handsome Richard Courtney also appears as 
her assistant.

-------------------------------------------------------------------------------
                                    CAST
-------------------------------------------------------------------------------
Natasha Gregson Wagner	... 	Christine Sternwald
Currie Graham	... 	Victor Sandeman
Aaron Pearl	... 	Jeff Monroe
Scott Hylands	... 	Detective Bill Malone
David Lewis	... 	David Brunel
Enid-Raye Adams	... 	Maggie Wexler
Sarah-Jane Redmond	... 	Mary Lane Ferris
Don MacKay	... 	Raymond Brunel
Peter Benson	... 	Joseph Brockway
Ty Olsson	... 	Detective Ed Reigert
Linda Darlow	... 	Detective Eleanor Douglas
Brenda Crichlow	... 	Dorothy Adler (as Brenda M. Crichlow)
Linda Ko	... 	Dr. Jetwan
Krista Morin	... 	Erika
Louise Grant	... 	Dog lady

-------------------------------------------------------------------------------
                                    MEDiA iNFO
-------------------------------------------------------------------------------

General
Complete name                    : The.Accidental.Witness.2006.DVDRip.AC3.X264-BARC0DE.mkv
Format                           : Matroska
File size                        : 1.08 GiB
Duration                         : 1h 29mn
Overall bit rate                 : 1 720 Kbps

Video
ID                               : 1
Format                           : AVC
Format/Info                      : Advanced Video Codec
Format profile                   : High@L3.0
Format settings, CABAC           : Yes
Format settings, ReFrames        : 3 frames
Muxing mode                      : Container profile=Unknown@3.0
Codec ID                         : V_MPEG4/ISO/AVC
Duration                         : 1h 29mn
Bit rate                         : 1 289 Kbps
Width                            : 720 pixels
Height                           : 400 pixels
Display aspect ratio             : 16:9
Frame rate                       : 25.000 fps
Color space                      : YUV
Chroma subsampling               : 4:2:0
Bit depth                        : 8 bits
Scan type                        : Progressive
Bits/(Pixel*Frame)               : 0.179
Stream size                      : 796 MiB (72%)
Writing library                  : x264 core 79

Audio
ID                               : 2
Format                           : AC-3
Format/Info                      : Audio Coding 3
Mode extension                   : CM (complete main)
Codec ID                         : A_AC3
Duration                         : 1h 29mn
Bit rate mode                    : Constant
Bit rate                         : 448 Kbps
Channel(s)                       : 6 channels
Channel positions                : Front: L C R, Side: L R, LFE
Sampling rate                    : 48.0 KHz
Stream size                      : 288 MiB (26%)
Language                         : English